<?xml version="1.0" encoding="utf-8"?>
<!-- Generator: Adobe Illustrator 16.0.0, SVG Export Plug-In . SVG Version: 6.00 Build 0)  -->
<!DOCTYPE svg PUBLIC "-//W3C//DTD SVG 1.1//EN" "http://www.w3.org/Graphics/SVG/1.1/DTD/svg11.dtd">
<svg version="1.1" id="Layer_1" xmlns="http://www.w3.org/2000/svg" xmlns:xlink="http://www.w3.org/1999/xlink" x="0px" y="0px"
	 width="512px" height="512px" viewBox="0 0 512 512" enable-background="new 0 0 512 512" xml:space="preserve">
<image display="none" overflow="visible" width="128" height="128" xlink:href="../../../app/assets/img/galaxy-128.png"  transform="matrix(3.9967 0 0 3.9967 4.882813e-004 0.0024)">
</image>
<path fill="none" stroke="#FFFFFF" stroke-width="15" stroke-miterlimit="10" d="M30.851,255.418
	c-7.006,50.647,137.586,109.669,255.184,25.172"/>
<path fill="none" stroke="#FFFFFF" stroke-width="15" stroke-miterlimit="10" d="M264.736,162.088
	C176.631,179.397-86.015,304.781,236.5,285.416"/>
<path fill="none" stroke="#FFFFFF" stroke-width="15" stroke-miterlimit="10" d="M262.248,383.1
	c290.186-97.821,141.596-186.719,18.782-141.126"/>
<circle fill="#FFFFFF" cx="103.989" cy="158.369" r="24"/>
<circle fill="#FFFFFF" cx="385.177" cy="119.858" r="15.996"/>
<circle fill="#FFFFFF" cx="144.188" cy="395.65" r="8"/>
<circle fill="#FFFFFF" cx="346.202" cy="92.171" r="8"/>
<circle fill="#FFFFFF" cx="419.364" cy="377.072" r="16"/>
<path fill="none" stroke="#FFFFFF" stroke-width="15" stroke-miterlimit="10" d="M470.26,316.256
	c55.091-128.692-142.79-146.406-233.238-75.617"/>
<path fill="none" stroke="#FFFFFF" stroke-width="15" stroke-miterlimit="10" d="M480.633,183.401
	c-148.727-54.006-463.561,82.989-231.569,81.269"/>
<path fill="none" stroke="#FFFFFF" stroke-width="15" stroke-miterlimit="10" d="M33.676,347.714
	c133.695,36.383,462.018-64.124,259.455-85.349"/>
<circle fill="#FFFFFF" cx="185.188" cy="430.65" r="8"/>
</svg>
