<?xml version="1.0" encoding="utf-8"?>
<!-- Generator: Adobe Illustrator 16.0.0, SVG Export Plug-In . SVG Version: 6.00 Build 0)  -->
<!DOCTYPE svg PUBLIC "-//W3C//DTD SVG 1.1//EN" "http://www.w3.org/Graphics/SVG/1.1/DTD/svg11.dtd">
<svg version="1.1" id="Layer_1" xmlns="http://www.w3.org/2000/svg" xmlns:xlink="http://www.w3.org/1999/xlink" x="0px" y="0px"
	 width="512px" height="512px" viewBox="0 0 512 512" enable-background="new 0 0 512 512" xml:space="preserve">
<g>
	<g>
		<path fill="#FFFFFF" d="M306.73,331.352l25.374-25.375l22.486,32.794l-14.67,14.67L306.73,331.352z"/>
	</g>
	<g>
		<path fill="#FFFFFF" d="M238.399,345h35.884l-7.288,39h-20.746L238.399,345z"/>
	</g>
	<g>
		<path fill="#FFFFFF" d="M180.445,306.299l25.375,25.375l-32.794,22.485l-14.67-14.67L180.445,306.299z"/>
	</g>
	<g>
		<path fill="#FFFFFF" d="M167,237.968v35.885l-40-7.288v-20.748L167,237.968z"/>
	</g>
	<g>
		<path fill="#FFFFFF" d="M205.498,180.013l-25.375,25.375l-22.486-32.795l14.67-14.669L205.498,180.013z"/>
	</g>
	<g>
		<path fill="#FFFFFF" d="M273.829,168h-35.886l7.29-40h20.746L273.829,168z"/>
	</g>
	<g>
		<path fill="#FFFFFF" d="M331.783,205.066l-25.376-25.375l32.796-22.486l14.669,14.669L331.783,205.066z"/>
	</g>
	<g>
		<path fill="#FFFFFF" d="M344,273.397v-35.885l40,7.289v20.746L344,273.397z"/>
	</g>
</g>
<circle fill="none" stroke="#FFFFFF" stroke-width="30" stroke-miterlimit="10" cx="256" cy="256" r="85.193"/>
</svg>
