<?xml version="1.0" encoding="utf-8"?>
<!-- Generator: Adobe Illustrator 16.0.0, SVG Export Plug-In . SVG Version: 6.00 Build 0)  -->
<!DOCTYPE svg PUBLIC "-//W3C//DTD SVG 1.1//EN" "http://www.w3.org/Graphics/SVG/1.1/DTD/svg11.dtd">
<svg version="1.1" id="Layer_1" xmlns="http://www.w3.org/2000/svg" xmlns:xlink="http://www.w3.org/1999/xlink" x="0px" y="0px"
	 width="512px" height="512px" viewBox="0 0 512 512" enable-background="new 0 0 512 512" xml:space="preserve">
<path fill="none" stroke="#FFFFFF" stroke-width="15" stroke-miterlimit="10" d="M456,256c0,55.225-89.543,100-200,100
	S56,311.225,56,256s89.543-100,200-100S456,200.775,456,256z"/>
<path fill="#FFFFFF" d="M138.854,134.508c0,0-1.679-38.83-10.354-47.258c-8.304-8.068-45.508-8.604-45.508-8.604
	s37.492-0.915,45.758-9.146c8.318-8.284,9.396-46.008,9.396-46.008S139.579,60.728,147.75,69
	c8.328,8.431,46.258,10.354,46.258,10.354S156.329,79.311,148,87.5C139.463,95.894,138.854,134.508,138.854,134.508z"/>
<path fill="#FFFFFF" d="M208.854,138.508c0,0-0.947-21.906-5.841-26.661c-4.685-4.552-25.673-4.854-25.673-4.854
	s21.151-0.517,25.814-5.16c4.693-4.673,5.301-25.956,5.301-25.956s0.808,21.007,5.418,25.673c4.698,4.756,26.096,5.841,26.096,5.841
	s-21.256-0.024-25.955,4.596C209.197,116.724,208.854,138.508,208.854,138.508"/>
<path fill="#FFFFFF" d="M370.907,321.563c0,0-4.058-93.866-25.027-114.239c-20.075-19.503-110.009-20.797-110.009-20.797
	s90.632-2.212,110.612-22.11c20.108-20.024,22.715-111.217,22.715-111.217s3.461,90.012,23.215,110.008
	c20.133,20.38,111.821,25.029,111.821,25.029s-91.082-0.104-111.217,19.692C372.381,228.218,370.907,321.563,370.907,321.563z"/>
<path fill="#FFFFFF" d="M189.854,308.508c0,0-1.298-30.016-8.003-36.529c-6.418-6.238-35.177-6.65-35.177-6.65
	s28.98-0.71,35.371-7.07c6.429-6.404,7.263-35.565,7.263-35.565s1.107,28.783,7.424,35.177c6.436,6.518,35.756,8.005,35.756,8.005
	s-29.125-0.034-35.563,6.297C190.324,278.659,189.854,308.508,189.854,308.508"/>
<path fill="#FFFFFF" d="M143.854,453.508c0,0-2.263-52.328-13.953-63.684c-11.189-10.876-61.325-11.594-61.325-11.594
	s50.523-1.238,61.664-12.326c11.208-11.165,12.662-62.003,12.662-62.003s1.93,50.179,12.942,61.325
	c11.22,11.362,62.336,13.955,62.336,13.955s-50.775-0.06-62,10.978C144.674,401.471,143.854,453.508,143.854,453.508"/>
</svg>
